<?xml version="1.0" standalone="no"?>
<!DOCTYPE svg PUBLIC "-//W3C//DTD SVG 20010904//EN"
 "http://www.w3.org/TR/2001/REC-SVG-20010904/DTD/svg10.dtd">
<svg version="1.0" xmlns="http://www.w3.org/2000/svg"
 width="512.000000pt" height="512.000000pt" viewBox="0 0 512.000000 512.000000"
 preserveAspectRatio="xMidYMid meet">
<metadata>
Created by potrace 1.14, written by Peter Selinger 2001-2017
</metadata>
<g transform="translate(0.000000,512.000000) scale(0.100000,-0.100000)"
fill="#000000" stroke="none">
<path d="M3066 4940 c-78 -28 -138 -70 -186 -131 -41 -52 -81 -145 -82 -191
-1 -16 -2 -28 -3 -28 -2 0 -33 18 -70 39 -141 83 -297 81 -430 -4 -262 -167
-235 -552 47 -683 53 -25 73 -42 48 -42 -13 0 -19 -5 -83 -61 -79 -69 -123
-162 -131 -271 -17 -223 170 -420 398 -420 115 0 202 37 292 124 l52 50 7 -33
c12 -58 66 -147 117 -195 255 -238 669 -57 669 293 0 72 -8 107 -42 177 -16
32 -28 60 -27 61 2 1 38 5 81 8 98 8 185 47 252 114 256 256 70 693 -290 682
-38 -1 -82 -6 -98 -10 -20 -6 -25 -5 -20 4 4 7 12 39 18 72 31 172 -63 353
-223 428 -87 41 -209 48 -296 17z"/>
<path d="M664 3481 c-117 -33 -201 -105 -259 -221 -22 -43 -29 -73 -32 -140
-6 -107 19 -189 82 -272 l44 -56 -50 -12 c-61 -15 -158 -78 -199 -130 -17 -21
-43 -65 -58 -97 -24 -52 -27 -69 -27 -163 0 -98 3 -109 33 -172 54 -110 139
-182 253 -212 60 -15 158 -14 203 4 15 5 30 10 34 10 4 0 7 -46 7 -103 1 -94
3 -107 33 -168 58 -120 165 -201 295 -223 139 -24 266 20 360 124 83 93 99
143 107 348 0 1 19 -7 43 -20 262 -135 561 59 558 362 -2 178 -116 329 -289
381 l-43 12 44 46 c56 58 81 101 102 174 42 144 -6 303 -123 407 -183 164
-463 121 -604 -93 l-26 -38 -30 53 c-99 172 -278 249 -458 199z"/>
<path d="M3480 2706 c-72 -21 -112 -41 -166 -82 -193 -146 -240 -358 -144
-647 l19 -57 -62 44 c-221 158 -429 190 -619 95 -121 -61 -226 -192 -257 -323
-36 -150 15 -324 128 -436 108 -106 238 -152 438 -154 62 -1 113 -2 113 -3 0
0 -24 -18 -52 -39 -191 -137 -280 -291 -273 -474 8 -223 148 -398 364 -455
151 -40 343 15 454 129 67 69 136 202 164 315 l9 35 18 -50 c76 -211 133 -293
251 -369 76 -48 137 -66 229 -70 167 -8 319 65 409 193 117 169 124 365 20
541 -38 63 -143 168 -222 220 l-39 26 117 1 c204 2 335 47 441 154 233 234
159 626 -145 765 -190 88 -381 55 -602 -102 -35 -25 -63 -43 -63 -41 0 2 9 30
20 61 83 236 54 440 -82 588 -44 48 -119 97 -182 121 -67 25 -224 33 -286 14z"/>
</g>
</svg>
